<svg width="20" height="20" viewBox="0 0 20 20" fill="none" xmlns="http://www.w3.org/2000/svg">
<g clip-path="url(#clip0_51_564)">
<path d="M10.0001 7.95817C10.7642 7.17734 11.7592 6.6665 12.9167 6.6665C14.1323 6.6665 15.2981 7.14939 16.1577 8.00893C17.0172 8.86847 17.5001 10.0343 17.5001 11.2498V17.4998H15.8334V11.2498C15.8334 10.4763 15.5261 9.73442 14.9791 9.18744C14.4322 8.64046 13.6903 8.33317 12.9167 8.33317C12.1432 8.33317 11.4013 8.64046 10.8544 9.18744C10.3074 9.73442 10.0001 10.4763 10.0001 11.2498V17.4998H8.33342V7.08317H10.0001V7.95817ZM4.16675 5.4165C3.83523 5.4165 3.51729 5.28481 3.28286 5.05039C3.04844 4.81597 2.91675 4.49802 2.91675 4.1665C2.91675 3.83498 3.04844 3.51704 3.28286 3.28262C3.51729 3.0482 3.83523 2.9165 4.16675 2.9165C4.49827 2.9165 4.81621 3.0482 5.05063 3.28262C5.28505 3.51704 5.41675 3.83498 5.41675 4.1665C5.41675 4.49802 5.28505 4.81597 5.05063 5.05039C4.81621 5.28481 4.49827 5.4165 4.16675 5.4165ZM3.33341 7.08317H5.00008V17.4998H3.33341V7.08317Z" fill="#CCD2E9"/>
</g>
<defs>
<clipPath id="clip0_51_564">
<rect width="20" height="20" fill="white"/>
</clipPath>
</defs>
</svg>
