<svg width="20" height="20" viewBox="0 0 20 20" fill="none" xmlns="http://www.w3.org/2000/svg">
<g clip-path="url(#clip0_51_560)">
<path d="M10.0001 7.49984C9.33704 7.49984 8.70116 7.76323 8.23231 8.23207C7.76347 8.70091 7.50008 9.3368 7.50008 9.99984C7.50008 10.6629 7.76347 11.2988 8.23231 11.7676C8.70116 12.2364 9.33704 12.4998 10.0001 12.4998C10.6631 12.4998 11.299 12.2364 11.7678 11.7676C12.2367 11.2988 12.5001 10.6629 12.5001 9.99984C12.5001 9.3368 12.2367 8.70091 11.7678 8.23207C11.299 7.76323 10.6631 7.49984 10.0001 7.49984ZM10.0001 5.83317C11.1052 5.83317 12.165 6.27216 12.9464 7.05356C13.7278 7.83496 14.1667 8.89477 14.1667 9.99984C14.1667 11.1049 13.7278 12.1647 12.9464 12.9461C12.165 13.7275 11.1052 14.1665 10.0001 14.1665C8.89501 14.1665 7.83521 13.7275 7.0538 12.9461C6.2724 12.1647 5.83342 11.1049 5.83342 9.99984C5.83342 8.89477 6.2724 7.83496 7.0538 7.05356C7.83521 6.27216 8.89501 5.83317 10.0001 5.83317ZM15.4167 5.62484C15.4167 5.9011 15.307 6.16606 15.1117 6.36141C14.9163 6.55676 14.6513 6.6665 14.3751 6.6665C14.0988 6.6665 13.8339 6.55676 13.6385 6.36141C13.4432 6.16606 13.3334 5.9011 13.3334 5.62484C13.3334 5.34857 13.4432 5.08362 13.6385 4.88827C13.8339 4.69292 14.0988 4.58317 14.3751 4.58317C14.6513 4.58317 14.9163 4.69292 15.1117 4.88827C15.307 5.08362 15.4167 5.34857 15.4167 5.62484ZM10.0001 3.33317C7.93842 3.33317 7.60175 3.339 6.64258 3.3815C5.98925 3.41234 5.55091 3.49984 5.14425 3.65817C4.78258 3.79817 4.52175 3.96567 4.24425 4.244C3.98342 4.496 3.78288 4.80366 3.65758 5.144C3.49925 5.55234 3.41175 5.98984 3.38175 6.64234C3.33841 7.56234 3.33341 7.884 3.33341 9.99984C3.33341 12.0615 3.33925 12.3982 3.38175 13.3573C3.41258 14.0098 3.50008 14.449 3.65758 14.8548C3.79925 15.2173 3.96591 15.4782 4.24258 15.7548C4.52341 16.0348 4.78425 16.2023 5.14258 16.3407C5.55425 16.4998 5.99258 16.5882 6.64258 16.6182C7.56258 16.6615 7.88425 16.6665 10.0001 16.6665C12.0617 16.6665 12.3984 16.6607 13.3576 16.6182C14.0092 16.5873 14.4484 16.4998 14.8551 16.3423C15.2159 16.2015 15.4784 16.034 15.7551 15.7573C16.0359 15.4765 16.2034 15.2157 16.3417 14.8573C16.5001 14.4465 16.5884 14.0073 16.6184 13.3573C16.6617 12.4373 16.6667 12.1157 16.6667 9.99984C16.6667 7.93817 16.6609 7.6015 16.6184 6.64234C16.5876 5.99067 16.5001 5.55067 16.3417 5.144C16.2162 4.80401 16.016 4.49647 15.7559 4.244C15.504 3.98304 15.1963 3.78248 14.8559 3.65734C14.4476 3.499 14.0092 3.4115 13.3576 3.3815C12.4376 3.33817 12.1159 3.33317 10.0001 3.33317ZM10.0001 1.6665C12.2642 1.6665 12.5467 1.67484 13.4351 1.7165C14.3226 1.75817 14.9267 1.89734 15.4584 2.104C16.0084 2.31567 16.4717 2.60234 16.9351 3.06484C17.3588 3.48142 17.6867 3.98533 17.8959 4.5415C18.1017 5.07234 18.2417 5.67734 18.2834 6.56484C18.3226 7.45317 18.3334 7.73567 18.3334 9.99984C18.3334 12.264 18.3251 12.5465 18.2834 13.4348C18.2417 14.3223 18.1017 14.9265 17.8959 15.4582C17.6873 16.0147 17.3594 16.5187 16.9351 16.9348C16.5184 17.3584 16.0145 17.6863 15.4584 17.8957C14.9276 18.1015 14.3226 18.2415 13.4351 18.2832C12.5467 18.3223 12.2642 18.3332 10.0001 18.3332C7.73592 18.3332 7.45341 18.3248 6.56508 18.2832C5.67758 18.2415 5.07341 18.1015 4.54175 17.8957C3.98535 17.6869 3.48135 17.359 3.06508 16.9348C2.64125 16.5183 2.31336 16.0144 2.10425 15.4582C1.89758 14.9273 1.75841 14.3223 1.71675 13.4348C1.67758 12.5465 1.66675 12.264 1.66675 9.99984C1.66675 7.73567 1.67508 7.45317 1.71675 6.56484C1.75841 5.6765 1.89758 5.07317 2.10425 4.5415C2.31278 3.98499 2.64075 3.48094 3.06508 3.06484C3.48147 2.64086 3.98544 2.31295 4.54175 2.104C5.07341 1.89734 5.67675 1.75817 6.56508 1.7165C7.45341 1.67734 7.73592 1.6665 10.0001 1.6665Z" fill="#CCD2E9"/>
</g>
<defs>
<clipPath id="clip0_51_560">
<rect width="20" height="20" fill="white"/>
</clipPath>
</defs>
</svg>
